HIERARCHY
ROOT Hips
{
 OFFSET 0.000000 0.000000 0.000000
 CHANNELS 6 Xposition Yposition Zposition Yrotation Xrotation Zrotation
 JOINT Chest
 {
  OFFSET 0.000000 9.585900 0.002600
  CHANNELS 3 Yrotation Xrotation Zrotation
  JOINT Chest2
  {
   OFFSET 0.000000 9.601200 -0.005300
   CHANNELS 3 Yrotation Xrotation Zrotation
   JOINT Chest3
   {
    OFFSET 0.000000 9.561800 0.000000
    CHANNELS 3 Yrotation Xrotation Zrotation
    JOINT Chest4
    {
     OFFSET 0.000000 9.552100 0.000000
     CHANNELS 3 Yrotation Xrotation Zrotation
     JOINT Neck
     {
      OFFSET 0.000000 14.453000 0.000000
      CHANNELS 3 Yrotation Xrotation Zrotation
      JOINT Head
      {
       OFFSET 0.000000 8.936500 -0.011300
       CHANNELS 3 Yrotation Xrotation Zrotation
       End Site
       {
        OFFSET 0.000000 17.073600 -0.006000
       }
      }
     }
     JOINT RightCollar
     {
      OFFSET -2.921100 9.558500 0.000000
      CHANNELS 3 Yrotation Xrotation Zrotation
      JOINT RightShoulder
      {
       OFFSET -13.519700 0.000000 0.000000
       CHANNELS 3 Yrotation Xrotation Zrotation
       JOINT RightElbow
       {
        OFFSET 0.000000 -29.696600 0.000000
        CHANNELS 3 Yrotation Xrotation Zrotation
        JOINT RightWrist
        {
         OFFSET 0.000000 -24.004700 0.000000
         CHANNELS 3 Yrotation Xrotation Zrotation
         End Site
         {
          OFFSET 0.000000 -17.728500 0.000000
         }
        }
       }
      }
     }
     JOINT LeftCollar
     {
      OFFSET 2.921100 9.558500 0.000000
      CHANNELS 3 Yrotation Xrotation Zrotation
      JOINT LeftShoulder
      {
       OFFSET 13.519700 0.000000 0.000000
       CHANNELS 3 Yrotation Xrotation Zrotation
       JOINT LeftElbow
       {
        OFFSET 0.000000 -29.696600 0.000000
        CHANNELS 3 Yrotation Xrotation Zrotation
        JOINT LeftWrist
        {
         OFFSET 0.000000 -24.004700 0.000000
         CHANNELS 3 Yrotation Xrotation Zrotation
         End Site
         {
          OFFSET 0.000000 -17.728500 0.000000
         }
        }
       }
      }
     }
    }
   }
  }
 }
 JOINT RightHip
 {
  OFFSET -7.771700 -0.012900 -0.001300
  CHANNELS 3 Yrotation Xrotation Zrotation
  JOINT RightKnee
  {
   OFFSET 0.000000 -40.869800 0.001200
   CHANNELS 3 Yrotation Xrotation Zrotation
   JOINT RightAnkle
   {
    OFFSET 0.000000 -39.717900 0.002100
    CHANNELS 3 Yrotation Xrotation Zrotation
    JOINT RightToe
    {
     OFFSET 0.000000 -4.965400 11.033500
     CHANNELS 3 Yrotation Xrotation Zrotation
     End Site
     {
      OFFSET 0.000000 -1.423100 5.872300
     }
    }
   }
  }
 }
 JOINT LeftHip
 {
  OFFSET 7.771700 -0.012900 -0.001300
  CHANNELS 3 Yrotation Xrotation Zrotation
  JOINT LeftKnee
  {
   OFFSET 0.000000 -40.869800 0.001200
   CHANNELS 3 Yrotation Xrotation Zrotation
   JOINT LeftAnkle
   {
    OFFSET 0.000000 -39.717900 0.002100
    CHANNELS 3 Yrotation Xrotation Zrotation
    JOINT LeftToe
    {
     OFFSET 0.000000 -4.965400 11.033500
     CHANNELS 3 Yrotation Xrotation Zrotation
     End Site
     {
      OFFSET 0.000000 -1.423100 5.872300
     }
    }
   }
  }
 }
}
MOTION
Frames: 9
Frame Time: 0.008333
-189.161168 57.514202 -59.928464 157.245232 -9.823927 0.520383 4.292803 6.835083 1.246544 0.203583 0.325798 0.016093 0.338923 0.587114 0.036178 3.953223 6.467115 0.562749 0.777222 18.950604 -1.201356 1.771234 -0.586476 -2.420305 2.530035 9.697320 0.513382 -8.599940 -11.948392 -7.870732 -124.918889 -83.310410 142.493089 -4.196546 4.398382 -29.610088 -6.182068 9.623320 -1.817077 24.232638 -8.405004 0.251100 116.957724 -75.642898 -144.731303 -2.732772 8.594202 8.235684 -16.498373 -62.072258 9.628248 -29.384852 71.841052 -29.152373 -2.227930 -5.440432 -3.224339 -0.171364 0.695084 -0.097370 4.659017 -64.779445 15.820376 39.042248 67.352573 31.444210 -16.180714 -9.989241 5.145113 -0.216525 -0.841401 -0.089648
-189.160030 57.510152 -59.927559 157.235700 -9.857744 0.534647 4.303989 6.862954 1.235511 0.210140 0.325167 0.012933 0.351146 0.582355 0.031792 3.937016 6.479862 0.570410 0.795854 18.963535 -1.210113 1.798952 -0.582315 -2.436783 2.544010 9.708180 0.513120 -8.556546 -11.979482 -7.940673 -123.873749 -83.374561 141.452489 -4.209774 4.442844 -29.611464 -6.169318 9.629493 -1.838106 24.235773 -8.475300 0.293540 116.829222 -75.617839 -144.687911 -2.735331 8.594190 8.201674 -16.464141 -62.045840 9.588907 -29.367699 71.849888 -29.133463 -2.219314 -5.447808 -3.221856 -0.178586 0.703939 -0.102930 4.686445 -64.749855 15.799107 39.040439 67.355809 31.450422 -16.191493 -9.963079 5.135486 -0.229539 -0.847762 -0.090573
-189.159704 57.506296 -59.924583 157.227553 -9.884950 0.546799 4.324743 6.878770 1.221308 0.201674 0.334489 0.017684 0.360135 0.586263 0.029946 3.944750 6.491804 0.564541 0.791436 18.959451 -1.202615 1.823627 -0.559655 -2.445896 2.543381 9.707952 0.527979 -8.520572 -12.002725 -8.026688 -122.825727 -83.420006 140.416774 -4.224261 4.483178 -29.617251 -6.179630 9.622090 -1.835785 24.251782 -8.523095 0.316262 116.701031 -75.590363 -144.648154 -2.738589 8.591395 8.176739 -16.479729 -62.025635 9.590778 -29.326017 71.862614 -29.106986 -2.207616 -5.446272 -3.213188 -0.189582 0.706394 -0.112146 4.709628 -64.728696 15.776316 39.054322 67.356722 31.469308 -16.178287 -9.942212 5.131895 -0.224575 -0.836031 -0.093334
-189.158657 57.502593 -59.917941 157.211910 -9.900188 0.545659 4.346576 6.891280 1.224865 0.202437 0.335624 0.017547 0.369627 0.593822 0.028997 3.958198 6.506664 0.559847 0.807477 18.979662 -1.200987 1.828560 -0.549498 -2.442357 2.555105 9.750423 0.542395 -8.513127 -12.060714 -8.106888 -121.913476 -83.449992 139.520920 -4.238021 4.516212 -29.625337 -6.198132 9.608839 -1.832369 24.256343 -8.551049 0.329451 116.612796 -75.570708 -144.618511 -2.742349 8.580229 8.146814 -16.493200 -62.011749 9.606721 -29.294518 71.863881 -29.062553 -2.217085 -5.439030 -3.236750 -0.173398 0.703960 -0.111482 4.708187 -64.716843 15.787510 39.057540 67.352352 31.477253 -16.165598 -9.933702 5.125979 -0.230912 -0.836116 -0.094576
-189.157872 57.499558 -59.910297 157.210530 -9.916330 0.538803 4.375270 6.910902 1.230470 0.189440 0.334469 0.021694 0.374648 0.599833 0.027190 3.968257 6.523913 0.560503 0.828545 19.006650 -1.203243 1.834547 -0.532254 -2.440010 2.550602 9.769462 0.547257 -8.495550 -12.081814 -8.182516 -121.241108 -83.469966 138.867822 -4.250006 4.539110 -29.632045 -6.199192 9.603450 -1.846323 24.243355 -8.595344 0.351676 116.517902 -75.555061 -144.570434 -2.742180 8.570787 8.126697 -16.527448 -61.995602 9.633481 -29.259446 71.864873 -29.030019 -2.211122 -5.426704 -3.240210 -0.180590 0.700254 -0.114150 4.688281 -64.702560 15.804807 39.027254 67.340186 31.462049 -16.173082 -9.920528 5.103755 -0.206927 -0.816779 -0.086664
-189.158141 57.497667 -59.904451 157.200000 -9.946964 0.541188 4.393229 6.943281 1.231183 0.197058 0.338003 0.019349 0.381628 0.605514 0.027180 4.009092 6.569808 0.557178 0.802849 18.986929 -1.193620 1.860502 -0.483664 -2.447810 2.518022 9.767469 0.557199 -8.490979 -12.091552 -8.238899 -120.817669 -83.482650 138.467217 -4.256705 4.548502 -29.632701 -6.197584 9.608616 -1.859371 24.200305 -8.695673 0.382075 116.349499 -75.542570 -144.436925 -2.741755 8.562599 8.118331 -16.515903 -61.967227 9.625607 -29.242914 71.860711 -29.012758 -2.205887 -5.418463 -3.245515 -0.184370 0.702994 -0.105581 4.689262 -64.674085 15.809052 39.028374 67.335178 31.467812 -16.171278 -9.912449 5.094854 -0.203253 -0.804997 -0.084802
-189.160893 57.496519 -59.898308 157.201998 -9.977118 0.552518 4.398348 6.976284 1.221001 0.207062 0.342912 0.017558 0.389740 0.610659 0.026691 4.033697 6.601981 0.554442 0.767624 18.954955 -1.182927 1.907908 -0.401150 -2.467865 2.502579 9.785105 0.564239 -8.499219 -12.088239 -8.274843 -120.613847 -83.487319 138.288798 -4.256495 4.546497 -29.626391 -6.227969 9.581306 -1.849868 24.203456 -8.736147 0.404500 116.190687 -75.530987 -144.297668 -2.744338 8.555114 8.114320 -16.496373 -61.943390 9.595344 -29.235692 71.857358 -29.007535 -2.200849 -5.412731 -3.242437 -0.188510 0.704895 -0.105486 4.662173 -64.644738 15.807837 39.075778 67.323296 31.510290 -16.156790 -9.896186 5.087954 -0.223654 -0.804958 -0.092795
-189.162739 57.495910 -59.889698 157.217210 -10.002403 0.549589 4.407835 7.005278 1.220819 0.232743 0.355426 0.015343 0.367735 0.607552 0.030866 4.054253 6.625005 0.551894 0.804409 19.019465 -1.192874 1.858021 -0.454124 -2.437023 2.493725 9.813470 0.569300 -8.515182 -12.069889 -8.291708 -120.855853 -83.454595 138.527579 -4.254925 4.543493 -29.621583 -6.228137 9.594699 -1.853064 24.165542 -8.783289 0.413622 116.160015 -75.531063 -144.265637 -2.739998 8.539396 8.095275 -16.559304 -61.916865 9.624100 -29.183111 71.860983 -28.977330 -2.178009 -5.408885 -3.228757 -0.211525 0.705460 -0.123100 4.635232 -64.619335 15.813272 39.024244 67.309170 31.474785 -16.175763 -9.880728 5.061916 -0.190036 -0.785062 -0.081891
-189.165267 57.495804 -59.879653 157.211429 -10.024285 0.550179 4.436994 7.033956 1.225260 0.221252 0.353054 0.014118 0.383245 0.616621 0.028687 4.079692 6.648183 0.550916 0.815665 19.053753 -1.196908 1.826939 -0.477225 -2.419060 2.483352 9.842980 0.571604 -8.535587 -12.034833 -8.288440 -120.899460 -83.460352 138.605106 -4.246346 4.523085 -29.603677 -6.229604 9.617479 -1.857292 24.125477 -8.825367 0.414742 116.200080 -75.526793 -144.308954 -2.734474 8.561827 8.133813 -16.556673 -61.895058 9.622093 -29.167233 71.848968 -28.961052 -2.167136 -5.397525 -3.232778 -0.217692 0.706646 -0.123939 4.608974 -64.598770 15.829581 39.034999 67.295342 31.486623 -16.172996 -9.865702 5.051965 -0.197655 -0.786020 -0.083636
